<svg xmlns="http://www.w3.org/2000/svg" width="487.68" height="523.259" viewBox="0 0 487.68 523.259">
  <g id="Group_1" data-name="Group 1" transform="translate(-35.595 -144.565)">
    <path id="Path_2" data-name="Path 2" d="M35.6,536.588c1.7.79,2.451,2.4,3.41,3.973-1.451.42-2.273-.864-3.41-1.16Z" fill="#f9930f"/>
    <path id="Path_3" data-name="Path 3" d="M87.665,578.756a5.9,5.9,0,0,0,1.2.673c1.37.393,2.623,2.36,4.013,1.091.861-.786-.4-2.294-.755-3.457a7.314,7.314,0,0,1-.11-4.494c.659-1.845,1.081-3.843-.762-4.556-1.592-.615-2.421,1.689-3.513,2.781-.272.271.023.956-1.046,1.153,1.18-2.826-.194-5.487.2-8.285.519-3.682-3.44-6.154-7.4-4.571a21.152,21.152,0,0,0-10.113,8.89,100.891,100.891,0,0,0-7.75,14.368C60.312,576.707,54.9,571.713,50,570.993c-1.841-.271-3.233-1.2-3.52-2.876-.591-3.463-2.094-5.81-5.779-6.4a2.294,2.294,0,0,1-1.351-1.021c-1.248-2.019.151-10.789,1.928-12.565,3.262-3.26,3.332-7.981,5.316-11.836.2-.4-.519-1.737-1.1-2-2.825-1.283-2-3.179-1.577-5.506,1.029-5.593,3.6-10.951,2.642-16.9-.17-1.055.759-2.406,1.434-3.458a218.359,218.359,0,0,1,13.594-19.291c3.3-4.092.659-11.248-1.821-13.77a1.969,1.969,0,0,0-1.18-.621c-5.319-.118-6.7-3.929-7.284-8.113-.346-2.465-1.06-4.333-3.137-5.855-2.159-1.583-3.312-3.521-2.159-6.618a14.682,14.682,0,0,0,.24-9.9,9.135,9.135,0,0,1-.054-4.19,67.961,67.961,0,0,1,13.1-31.065c11.465-14.92,22.419-30.234,33.553-45.407a25.038,25.038,0,0,0,3.509-6.723c.688-2,.689-3.67-1.053-5-1.933-1.478-3.217.283-4.484,1.2-6.656,4.8-12.255,10.769-18.026,16.546-5.737,5.744-6.775,5.526-9.8-1.826a13.5,13.5,0,0,1-1.384-6.332,5.078,5.078,0,0,0-2.414-4.733c-.618-.434-1.465-1-1-1.522,2.924-3.278.643-8.089,3.725-11.473,2.261-2.484,1-6.061,1.05-9.149a10.673,10.673,0,0,1,2.172-6.992c9.925-12.738,19.7-25.593,30.786-37.369,3.349-3.557,5.312-8.117,8.6-11.74a109.08,109.08,0,0,1,10.912-10.778,80.982,80.982,0,0,0,11.6-12.155c4.905-6.2,10.549-11.742,15.369-18.028a286.017,286.017,0,0,1,25.944-29.716c4.528-4.469,9.137-8.476,15.324-10.375,2.865-.879,5.69-1.92,7.5-4.577.729-1.068,1.568-.785,2.342-.087,1.041.941,2.03,1.939,3.031,2.9-3.63,4.28-3.63,4.28,1.4,6.881.1.052.245.034.329.1,2.27,1.793,2.265,1.786,5.357.24,7.514-3.754,13.4-9.79,20.256-14.466,16.512-11.259,32.813-22.819,49.628-33.648,5.966-3.842,11.864-7.392,18.646-9.49,2.224-.688,4.4-.284,6.6-.425,1.989-.128,2.043,1.7,2.461,2.887.644,1.824,1.451,2.532,3.344,1.537,1.31-.689,3.042-.82,4.062-1.765a10.681,10.681,0,0,1,7.606-2.957c-3.746,6.207,1.605,10.19,3.822,14.826.77,1.612.386,4.131,3.156,4.957,3.375,1.006,1.783,4.24,2.113,6.58s1.832,1.413,2.773.785c6.277-4.19,13.494-5.74,20.631-7.52a15.822,15.822,0,0,1,8.609.369,2.865,2.865,0,0,1,1.673,1.163c2.444,3.724,5.1,4.714,9.665,3.511a25.707,25.707,0,0,1,6.409-1.226c1.1-.009,3.844.416,1.941-2.4.548-.329,1.069-.874,1.648-.945a9.123,9.123,0,0,1,5.437.675c2.351,1.174,3.18,2.235.67,4.106-2.678,2-1.689,3.32.894,4.262,1.829.667,3.639,1.4,5.5,1.963.619.188,1.831.189,1.984-.118,1.825-3.667,3.821-.756,4.723.3,1.313,1.537,5.078,1.585,3.609,5.27-.265.666,1.4,1.221,2.567.75a8.158,8.158,0,0,1,5.431.035c3.17.872,5.9-.248,8.31-2.469,6.608-6.1,15.113-7.42,23.426-9.35,3.211-.745,6.479-.249,9.751-.9.784,1.621.119,3.634.7,5.6.776,2.634,1.85,2.65,4.026,1.972,6.126-1.91,12.131-4.257,18.488-5.37,2.776-.486,6.192-1.982,5.415,3.346-.036.244.319.666.594.815,4.333,2.346,6.634,6.81,10.327,9.877,3.2,2.655,6.327,3.773,10.115,2.185,2.365-.992,3.856-.568,5.2,1.616,1.716,2.786,5.054,3.037,7.756,4.425a5.294,5.294,0,0,1-3.665,1.219c1.587,1.791,3.38,3.032,3.083,5.115a7.411,7.411,0,0,1-2.734,5.045,4.192,4.192,0,0,0-1.133,1.721c-.477,1.16-1.544,2.4-.849,3.6.825,1.43,1.936-.331,3.072-.189,1.954.244,3.851.167,5.611,1.4,2.249,1.582,2.39,3.253.077,4.809-1.529,1.028-3.225,1.827-4.675,2.95-2.872,2.222-2.857,4.857.1,7.092,2.006,1.514,1.779,3.056.11,4.273-3.3,2.408-4.371,7.256-9.014,8.157a1.107,1.107,0,0,0-.745.69c-.513,4.444-4.081,5.063-7.4,6.4-3.992,1.613-6.726,5.5-11.291,6.437-1.36.278-2.245,1.93,0,3.284,1.636.987,3.108,2.043,5.094,1.732,2.176-.342,3.357.687,4.454,2.492,1.935,3.183,4.524,5.383,8.686,5.347a5.019,5.019,0,0,1,4.674,2.316c1.209,1.889,3.65,2.463,6.125,2.563,2.406.1,5.383.028,3.567,4.3-.913,2.148-.058,4.567,3.34,6.187-8.415.133-9.813,7.546-14.31,11.371-1.213,1.031.642,2.127,1.744,2.626,4.1,1.858,4.969,6.58,1.738,9.858a171.647,171.647,0,0,0-13.48,15.938c-2.047,2.654-4.618,4.534-4.051,8.45.283,1.959.345,3,2.8,3.325,1.814.242,4.045-.135,5.7,1.632-2.066.106-3.052,1.215-2.512,3.191.628,2.3,4.718,4.669,7.1,3.963a9.489,9.489,0,0,1,5.722-.1c4.2,1.234,6.15,4.692,8.335,7.869,1.368,1.989-.3,3.49-1.711,4.68-.884.747-1.6-.117-1.8-.889a9.492,9.492,0,0,1-.154-2.789c.068-1.85-.183-3.474-2.087-4.42a5.318,5.318,0,0,0-5.822.582,8.5,8.5,0,0,0-2.566,2.822c-.752,1.464-2.265,2.972-1.235,4.792,1.225,2.165,2.925-.022,4.4.208,1.3.2,3.041-1.567,3.86.632.862,2.317,2.216,4.673.738,7.263-.057.1-.145.183-.212.279-.927,1.321-2.973,2.52-2.031,4.214.923,1.659,3.193,1.713,5.048,1.657,1.9-.058,3.559.764,5.518,1.229-1.994,0-2.629,1.323-3.015,2.872-4.75-3.877-11.081-1.7-12.421,4.259a17.537,17.537,0,0,1-6.007,9.874c-1.741,1.456-3.8,3.264-6.167,1.341-2.142-1.741-1.285-3.879.485-5.965-.987-.081-1.833-.385-2.06-.133-3.671,4.073-9.9,3.85-13.357,8.8-4.968,7.117-11.723,12.886-16.489,20.289-1.412-2.414-1.4-2.4.2-4.473a17.573,17.573,0,0,0,1.563-2.281,2.76,2.76,0,0,0-.116-2.981c-.863-1.328-2.015-.474-3.063-.411a3.837,3.837,0,0,0-.433-.45l7.6-8.078c-3.438.109-5.872,2.093-8.255,3.8a76.63,76.63,0,0,0-14.41,14.2,3.408,3.408,0,0,0-.724,2.242c-.037,1.334-1.8,2.588-2.175,2.313-4.107-3.028-6.575,1.088-9.276,2.384-5.229,2.508-9.557,6.539-13.444,10.918-1.005,1.132-2.432,2.563-1.532,3.874.725,1.056,2.5.258,3.872-.2,4.784-1.6,9.676-2.876,14.429-4.553,1.827-.645,3.713-.168,5.5-.884a2.411,2.411,0,0,1,2.238.6c2.959,5.437,3.695-.326,5.025-1.176,1.245-.795,1.832-2.633,3.577-3.771.08,4.163,3.031,4.545,6.074,4.748a15.459,15.459,0,0,0,3.161-.009c5.546-.774,5.871,3.16,4.392,6.867a30.4,30.4,0,0,1-1.435,2.762c-1.444,2.753-1.414,2.864,1.425,5.122,1.018-.563.947-1.753,1.328-2.626,1.724-3.951,5.217-6.05,9.462-4.891a5,5,0,0,0,5.591-1.509c1.45-1.6,2.621-1.987,4.3-.2,2.283,2.439,5.323,2.518,8.455,2.275,3.823-.3,4.055,0,3.143,3.7a30.235,30.235,0,0,1-2.716,6.734c-1.071,2.052-1.352,4.041.561,6.021,2.3,2.376,2.785,4.988-.2,7.34a5.229,5.229,0,0,0-1.819,5.025c.152,1.636-.326,2.693-2.252,2.749-2.87.083-2.562,1.941-1.154,3.173,4.252,3.722,3.624,9.245,5.407,13.849,1.153,2.975-1.527,5.654-2.161,8.563-.313,1.438-.79,2.546.262,3.855,1.281,1.594,2.607.632,3.759.1a8.223,8.223,0,0,1,8.94.636c5.26,3.5,5.944,3.017,10.476-3.707-2.864,6.066-1.62,12.238-1.046,18.707,3.493-1.994,4.717-5.553,6.954-8.147,0,2.019-.105,2.834-1.851,4.9-7.423,8.771-12.779,18.9-19.011,28.454-3.1,4.745-7.108,8.9-10.739,13.286a3.945,3.945,0,0,1-3.3,1.791c1.027-2.583,1.939-5.045,2.985-7.448.778-1.787-.147-2.3-1.449-1.635-1.47.752-5.106-.436-3.685,3.472.047.13-.194.5-.367.554-5.108,1.721-6,8.234-11.539,9.917.954-3.578,3.195-6.194,5.325-8.792,5.538-6.753,8.38-15.151,13.639-22.063.976-1.283,1.774-2.7,2.747-3.985.908-1.2,2.909-2.114.027-3.538-1.437-.71.144-1.573.668-2.083,1.692-1.645,2.853-3.472,2.089-5.874-.256-.8-.49-2.087-1.48-2.208-1.021-.126-1.472,1.022-1.821,1.84-.905,2.123-1.774,4.267-2.506,6.454a50.33,50.33,0,0,1-2.5,4.948c-3.33,7.243-9.179,12.89-12.6,20.064-.149.313-.268.751-.528.885-7.048,3.631-9.24,11.343-14.047,16.861-1.831,2.1-4.056,3.682-5.869,5.768C452.2,570.177,449.219,577.707,444.3,584a198.563,198.563,0,0,0-22.706,36.83c-4.144,8.686-8.686,17.234-11.912,26.345a38.551,38.551,0,0,0-1.36,5.679c-.357,1.873-.282,3.916-3.015,4.086a1.508,1.508,0,0,0-1.19,1.558c-.017,1.249-.172,2.363-1.741,2.558a3.167,3.167,0,0,1-3.565-1.572c-.429-.772-.777-2.1-1.854-1.705-.867.318-1.085,1.544-1.357,2.577-1.162,4.431-7.568,7.821-11.981,7.436-2.034-.178-5.172-6.523-4.744-9.054.463-2.737,1.3-5.5,1.208-8.223-.222-6.615,1.378-12.838,3.29-19.038.354-1.147.824-2.625-.124-3.252-1.432-.948-1.758.917-2.507,1.654-1.428,1.406-3.562,1.411-5.145,2.74-1,.841-1.649-.554-1.753-1.724-.265-2.986.12-5.79,2.135-8.168,4.37-5.154,5.218-10.855,2.857-17.162-.323-.862-.406-1.6-1.462-1.441-4.755.719-8.109-2.053-11.457-4.72-.831.626-.519,1.383-.48,1.978.125,1.888-.438,2.329-2.133,1.33-3.193-1.883-7.238-2.5-8.721-6.783-.666-1.921-2.411-.629-3.132.091-3.634,3.634-7.531,7.012-10.78,11.03-2.917,3.606-5.983,7.091-8.909,10.691-1.508,1.855-3.009,2.631-5.616,1.977a22.246,22.246,0,0,1-5.49-1.937c-3.409-1.942-1.5-4.875-.06-6.871,1.931-2.672,1.331-3.978-1.264-5.411-3.191-1.764-4.308-6.663-2.617-10.493s1.5-4.252-2.172-5.769a3.75,3.75,0,0,1-2.437-4.713c.621-2.859,1.55-5.585,3.671-7.705,1.335-1.334,1.443-2.3-.5-3.059a13.5,13.5,0,0,1-6.582-5.217c-.9-1.313-3.65-2.224-5.693-3.038a1.071,1.071,0,0,0-1.46.632c-.59,2.794-2.6,2.614-4.846,2.946-3.366.5-3.211,3.281-2.741,6.272l10.366-6.209a16.8,16.8,0,0,1-4.959,6.944c-5.146,4.288-9.581,9.267-14.376,13.89-1.439,1.388-2.365,2.182-3.482-.346-.724-1.639-2.43-1.338-4.125-1.542-7.38-.888-9.235,5.217-12.656,9.34-1.847,2.227-3.368,4.72-6.043,6.153-.937.5-1.651.726-2.5-.076-.912-.862-.044-1.469.232-2.149,2.669-6.566,7.368-11.738,11.771-17.111,1.322-1.612,2.755-3.135,4.022-4.787.524-.683,1.505-1.624.83-2.43-.882-1.054-2.147-.1-2.777.483a38.614,38.614,0,0,0-4.1,4.681q-11.983,15.328-23.922,30.692c-.412.528-.861,1.332-1.659.861-.682-.4-.926-.982-.65-2.03.812-3.077,3.088-5.123,4.838-7.531.878-1.209,1.833-2.3,1.752-4.04-2.175.325-3.548,2.232-5.682,1.849-1.271-.227-2.666-.664-1.5-2.141,3.9-4.936,5.729-11.025,9.269-16.139.644-.931.816-2.3,2.035-2.706,1.27-.422.477-1.025.245-1.546-.34-.761-.858-1.677-1.805-1.172-2.31,1.231-4.742,2.17-5.971,4.973a38.742,38.742,0,0,1-8.32,11.823,7.973,7.973,0,0,1-1.585.84,17.053,17.053,0,0,1,3.517-6.98c1.569-2.064,1.406-6.155-.289-7.962-.377-.4-.9-1.1-1.435-.555-1.953,1.979-5.076,2.833-5.393,6.392-.509,5.719-1.307,6.354-7.063,6.643a3.847,3.847,0,0,0-3,1.45c-4.679,5.614-10.086,10.651-13.813,17.014-1.885,3.221-5.29,4.744-7.574,7.617-7,8.8-15.492,16.238-23.283,24.323-1.68,1.743-3.694,2.317-5.959.966-2.191-1.307-4.25-.8-6.137.624a24.54,24.54,0,0,0-4.529,3.814c-3.515,4.362-8.567,4.643-13.439,5.441-1.572.258-5.241,4.5-5.1,6.067.093,1.058.84.908,1.511.989,1.953.235,3.9.541,5.857.705,1.337.111,1.929.661,1.574,2.409-1.721-1.313-3.221-1.226-4.477.614s-3.01.837-4.283.169a3.2,3.2,0,0,1-1.788-4.034,25,25,0,0,0,.828-2.993,2.447,2.447,0,0,0-1.9-3.182c-6.057-1.871-7.706-5.669-5.322-11.533.628-1.546,2.9-3.291.943-4.926-1.809-1.508-4.3-1.5-6.584-.373-2.708,1.338-5.14,3.291-5.864,6.113-.618,2.406-3.828,4.081-1.942,7.469.446.8-2.458,2.76-3.9,4.12-1.685,1.591-4.891,2.227-3.744,5.759.092.285-.842,1.075-1.429,1.374-1.148.586-1.719-.436-2.218-1.151a29.96,29.96,0,0,0-7.535-8.092c-2.1-1.42-4.134-3.013-6.844-2.985-3.062.032-4.168-2.016-4.166-4.48,0-3.316-1.105-5.546-4.271-6.764-1.529-.588-2.075-1.837-2.2-3.579-.362-5.189,1.356-10.083,1.805-15.141.16-1.8,1.929-2.194,2.482-3.629,1.7-4.417.192-8.1-4.455-10.379-.965-.473-.439-1.083-.208-1.608a146.95,146.95,0,0,1,10.408-20.312c1.349-2.112,2.489-3.971-1.583-3.673-1.855.136-2.762-.9-3.158-2.567A2.371,2.371,0,0,0,87.665,578.756Zm291.26-145.168a9.156,9.156,0,0,0-1.66.743c-7.172,6.5-12.7,14.508-19.508,21.362-1.779,1.792-3.2,3.718-5.94,3.5a3.644,3.644,0,0,0-3.437,2.009c-4.6,6.971-10.6,12.681-16.489,18.485-3.5,3.447-7.264,6.625-10.708,10.123-12.507,12.7-22.917,27.287-35.626,39.818a19.019,19.019,0,0,0-4.547,7.334l.714.608,6.432-6.281c-.114,2.055-.158,3.338-.269,4.616-.042.485-.774,1.082.216,1.332a1,1,0,0,0,1.367-.682c.753-2.186,2.473-3.658,4.122-5.1,2.007-1.758,4.77-3.009,5.78-5.458,1.908-4.625,6.322-6.776,9.427-10.139,3.966-4.3,8.661-7.934,12.855-12.158,10.946-11.026,20.9-23.044,32.761-33.169,6.51-5.557,11.059-12.956,17.3-18.814,2.494-2.34,4.261-5.455,6.359-8.217l-.417-.464-4.646,2.025C374.39,440.9,377.636,438.138,378.925,433.588ZM263.146,579.194a16.9,16.9,0,0,0,9.176-11.723c.171-.713.486-1.538-.079-1.94a1.467,1.467,0,0,0-2.1.655C267.763,570.269,263.129,573.051,263.146,579.194Zm57.935,1.922c-.533-1.669-1.381-3.545-3.5-4.309-.683-.246-4.344,5.984-4.2,7.107.26,1.949,1.5,2.752,3.381,2.648C318.808,586.449,321.182,583.635,321.081,581.116ZM493.346,439.442a1.152,1.152,0,0,0-1.229-1.025c-1.1.082-6.2,4.456-6.439,5.489-.37,1.617.908,2.542,1.564,3.714.3.533.9.317,1.147-.077C490.036,444.917,491.631,442.259,493.346,439.442ZM278.674,551.859a5.958,5.958,0,0,0-.575-.866.831.831,0,0,0-1.223-.014c-1.609,1.473-3.209,2.961-4.742,4.513-.2.205-.1.858.06,1.215a.969.969,0,0,0,.91.221C275.444,555.792,276.81,553.592,278.674,551.859Zm-29.5,45c4.658.789,4-2.867,5.288-5.431C250.961,591.993,250.419,594.567,249.17,596.862Z" fill="#f89000"/>
    <path id="Path_4" data-name="Path 4" d="M472.078,560.247q-11.526,19.243-23.061,38.48a13.043,13.043,0,0,1-1.358,1.475,16.918,16.918,0,0,1,3.111-8.556c7.066-9.9,11.892-21.208,19.545-30.72a13.171,13.171,0,0,1,1.224-1.183Z" fill="#f89000"/>
    <path id="Path_5" data-name="Path 5" d="M295.638,586.045c-.667,4.737-4.427,7.167-6.3,10.909C286.559,592.08,288.887,588.065,295.638,586.045Z" fill="#f89000"/>
    <path id="Path_6" data-name="Path 6" d="M431.523,632.247c.14-3.1,1.616-5.812,2.889-8.463,2.828-5.891,5.391-11.953,9.447-17.211-3.88,8.665-7.238,17.575-12.407,25.622Z" fill="#f9930f"/>
    <path id="Path_7" data-name="Path 7" d="M481.609,561.683a15.992,15.992,0,0,1,3.682-6.877,1.522,1.522,0,0,1,2.137-.388,1.14,1.14,0,0,1-.038,1.814C485.082,557.669,483.718,560.034,481.609,561.683Z" fill="#f9930f"/>
    <path id="Path_8" data-name="Path 8" d="M298.016,581.515c1.982-2,1.985-5.883,6.623-6.435C302.014,577.6,300.969,580.444,298.016,581.515Z" fill="#f9930f"/>
    <path id="Path_9" data-name="Path 9" d="M471.539,559.743c.155-1.609,1.517-2.427,2.4-3.591.462,1.864-.554,3.045-1.867,4.1Z" fill="#f89000"/>
    <path id="Path_10" data-name="Path 10" d="M438.073,416.646c.717-.687,1.24-1.673,2.552-1.6.1,1.406-.762,1.9-1.9,2.157Z" fill="#f89000"/>
    <path id="Path_11" data-name="Path 11" d="M458.985,401.6c-.371.688-.791,1.311-2.452,1.243l2.031-1.808Z" fill="#f89000"/>
    <path id="Path_12" data-name="Path 12" d="M431.452,632.2c.39.665.073,1.261-.192,1.926-.686-.776-.647-1.386.263-1.874Z" fill="#f9930f"/>
    <path id="Path_13" data-name="Path 13" d="M437.889,417.776c-.292.454-.682,1.237-1.191.685-.529-.574.442-.851.767-1.25Z" fill="#f89000"/>
    <path id="Path_14" data-name="Path 14" d="M434.986,419.8c.2-.523.806-1.125,1.076-.844.73.759-.309.928-.69,1.307A1.866,1.866,0,0,0,434.986,419.8Z" fill="#f89000"/>
    <path id="Path_15" data-name="Path 15" d="M87.24,579.1c-.288-.512-.478-1.023.025-1.522l.4,1.173A2.371,2.371,0,0,1,87.24,579.1Z" fill="#f89000"/>
    <path id="Path_16" data-name="Path 16" d="M296.647,583.65c-.128.178-.256.354-.384.53-.128-.157-.331-.3-.371-.476-.093-.415.186-.578.546-.515C296.532,583.205,296.578,583.488,296.647,583.65Z" fill="#f9930f"/>
    <path id="Path_17" data-name="Path 17" d="M459.231,400.441q.357-.353.712-.707a3.9,3.9,0,0,1,.431.449l-.7.7A3.626,3.626,0,0,0,459.231,400.441Z" fill="#f89000"/>
    <path id="Path_18" data-name="Path 18" d="M458.564,401.035q.336-.3.67-.593a3.746,3.746,0,0,1,.437.444l-.686.714Z" fill="#f89000"/>
    <path id="Path_19" data-name="Path 19" d="M438.721,417.207l-.832.569-.424-.565.609-.565Z" fill="#f89000"/>
    <path id="Path_20" data-name="Path 20" d="M435.372,420.268l-.792.079.406-.542A1.866,1.866,0,0,1,435.372,420.268Z" fill="#f89000"/>
    <path id="Path_21" data-name="Path 21" d="M378.925,433.588c-1.289,4.55-4.535,7.317-5.912,11.468l4.646-2.025.417.464c-2.1,2.762-3.865,5.877-6.359,8.217-6.243,5.858-10.792,13.257-17.3,18.814-11.863,10.125-21.815,22.143-32.761,33.169-4.194,4.224-8.889,7.863-12.855,12.158-3.105,3.363-7.519,5.514-9.427,10.139-1.01,2.449-3.773,3.7-5.78,5.458-1.649,1.445-3.369,2.917-4.122,5.1a1,1,0,0,1-1.367.682c-.99-.25-.258-.847-.216-1.332.111-1.278.155-2.561.269-4.616l-6.432,6.281-.714-.608a19.019,19.019,0,0,1,4.547-7.334c12.709-12.531,23.119-27.116,35.626-39.818,3.444-3.5,7.21-6.676,10.708-10.123,5.889-5.8,11.888-11.514,16.489-18.485a3.644,3.644,0,0,1,3.437-2.009c2.741.22,4.161-1.706,5.94-3.5,6.805-6.854,12.336-14.859,19.508-21.362A9.156,9.156,0,0,1,378.925,433.588Z" fill="#fff"/>
    <path id="Path_22" data-name="Path 22" d="M263.146,579.194c-.017-6.143,4.617-8.925,7-13.008a1.467,1.467,0,0,1,2.1-.655c.565.4.25,1.227.079,1.94A16.9,16.9,0,0,1,263.146,579.194Z" fill="#fff"/>
    <path id="Path_23" data-name="Path 23" d="M321.081,581.116c.1,2.519-2.273,5.333-4.312,5.446-1.88.1-3.121-.7-3.381-2.648-.149-1.123,3.512-7.353,4.2-7.107C319.7,577.571,320.548,579.447,321.081,581.116Z" fill="#fff"/>
    <path id="Path_24" data-name="Path 24" d="M493.346,439.442c-1.715,2.817-3.31,5.475-4.957,8.1-.247.394-.849.61-1.147.077-.656-1.172-1.934-2.1-1.564-3.714.237-1.033,5.338-5.407,6.439-5.489A1.152,1.152,0,0,1,493.346,439.442Z" fill="#fff"/>
    <path id="Path_25" data-name="Path 25" d="M278.674,551.859c-1.864,1.733-3.23,3.933-5.57,5.069a.969.969,0,0,1-.91-.221c-.159-.357-.262-1.01-.06-1.215,1.533-1.552,3.133-3.04,4.742-4.513a.831.831,0,0,1,1.223.014A5.958,5.958,0,0,1,278.674,551.859Z" fill="#fff"/>
    <path id="Path_26" data-name="Path 26" d="M249.17,596.862c1.249-2.295,1.791-4.869,5.288-5.431C253.173,593.995,253.828,597.651,249.17,596.862Z" fill="#fff"/>
  </g>
</svg>
